<svg version="1.1" xmlns="http://www.w3.org/2000/svg" viewBox="0 0 505.26799411926913 371.4009612587812" width="505.26799411926913" height="371.4009612587812" filter="invert(93%) hue-rotate(180deg)">
  <!-- svg-source:excalidraw -->
  
  <defs>
    <style class="style-fonts">
      @font-face {
        font-family: "Virgil";
        src: url("https://excalidraw.com/Virgil.woff2");
      }
      @font-face {
        font-family: "Cascadia";
        src: url("https://excalidraw.com/Cascadia.woff2");
      }
    </style>
    
  </defs>
  <g stroke-linecap="round" transform="translate(79.6019516793989 73.93498092671098) rotate(0 115.87055544279181 118.17873383806648)"><path d="M98.27 0.68 C110.42 -3, 126.04 0.51, 138.86 3.19 C151.69 5.88, 163.96 9.96, 175.24 16.8 C186.53 23.65, 198.25 33.74, 206.58 44.27 C214.9 54.8, 220.87 67.29, 225.17 79.99 C229.47 92.69, 232.67 106.82, 232.37 120.46 C232.07 134.09, 228.31 149.14, 223.36 161.79 C218.4 174.45, 211.12 186.26, 202.63 196.37 C194.14 206.48, 183.89 216.07, 172.43 222.45 C160.96 228.84, 147.1 232.83, 133.85 234.69 C120.59 236.54, 105.97 236.08, 92.89 233.57 C79.81 231.06, 66.72 226.47, 55.36 219.62 C44 212.76, 32.77 202.95, 24.73 192.42 C16.69 181.89, 11.36 169.24, 7.11 156.44 C2.86 143.65, -0.87 129.22, -0.78 115.65 C-0.69 102.08, 2.66 87.47, 7.64 75.04 C12.63 62.61, 20.37 51.05, 29.14 41.06 C37.91 31.07, 47.86 21.73, 60.26 15.08 C72.66 8.43, 95.39 3.41, 103.52 1.17 C111.66 -1.07, 108.83 -0.26, 109.07 1.62 M98.39 1.45 C110.48 -2.17, 123.76 0.33, 136.52 2.88 C149.28 5.42, 163.22 9.74, 174.94 16.75 C186.67 23.75, 198.6 34.32, 206.88 44.92 C215.16 55.51, 220.42 67.8, 224.61 80.33 C228.8 92.87, 231.9 106.96, 232.02 120.14 C232.15 133.31, 230.3 146.85, 225.38 159.39 C220.46 171.92, 211.2 185.03, 202.5 195.35 C193.8 205.67, 184.44 214.9, 173.18 221.29 C161.92 227.69, 147.95 231.44, 134.94 233.7 C121.93 235.96, 108.38 237.34, 95.11 234.84 C81.85 232.34, 67.11 225.48, 55.36 218.68 C43.61 211.89, 32.73 204.65, 24.59 194.08 C16.45 183.51, 10.49 168.16, 6.5 155.25 C2.51 142.34, 0.36 129.67, 0.66 116.61 C0.95 103.56, 3.77 89.38, 8.27 76.95 C12.76 64.51, 18.96 52.22, 27.64 42 C36.31 31.79, 48.59 22.39, 60.32 15.64 C72.04 8.89, 91.69 3.28, 97.97 1.51 C104.24 -0.26, 97.64 2.87, 97.97 5.01" stroke="#1e1e1e" stroke-width="1" fill="none"></path></g><g stroke-linecap="round" transform="translate(206.03970791838378 75.24268152351715) rotate(0 115.87055544279181 118.17873383806648)"><path d="M83.86 5.38 C95.31 0.42, 110.3 0.11, 123.69 1.06 C137.07 2.02, 151.85 5.68, 164.17 11.11 C176.49 16.53, 188.28 24.27, 197.6 33.61 C206.92 42.95, 214.61 54.87, 220.07 67.14 C225.53 79.41, 229.1 93.77, 230.38 107.21 C231.66 120.66, 230.75 135, 227.76 147.83 C224.78 160.66, 219.91 173.1, 212.47 184.17 C205.03 195.24, 194.05 206.35, 183.12 214.27 C172.18 222.18, 159.65 227.88, 146.86 231.66 C134.07 235.43, 119.57 237.85, 106.39 236.89 C93.21 235.93, 79.62 231.53, 67.79 225.9 C55.96 220.28, 44.76 212.53, 35.41 203.13 C26.05 193.73, 17.56 181.83, 11.64 169.5 C5.72 157.17, 1.4 142.56, -0.1 129.15 C-1.6 115.75, -0.81 102, 2.65 89.07 C6.11 76.14, 13.19 62.78, 20.66 51.59 C28.13 40.39, 33.98 30.3, 47.48 21.9 C60.98 13.49, 89.9 4.23, 101.65 1.15 C113.4 -1.94, 117.69 1.58, 117.96 3.37 M103.97 0.21 C116.22 -2.69, 131.07 1.36, 143.8 4.81 C156.54 8.26, 169.4 13.37, 180.38 20.89 C191.36 28.42, 201.85 38.73, 209.68 49.95 C217.52 61.17, 223.61 75.51, 227.37 88.23 C231.14 100.94, 233.12 112.96, 232.28 126.26 C231.45 139.57, 228.1 155.64, 222.35 168.05 C216.6 180.46, 207.24 191.11, 197.78 200.73 C188.32 210.36, 177.33 220.14, 165.58 225.78 C153.84 231.43, 140.54 233.33, 127.33 234.62 C114.13 235.91, 99.19 236.64, 86.36 233.54 C73.52 230.44, 61.34 223.73, 50.32 216.02 C39.31 208.3, 27.79 198.08, 20.27 187.24 C12.76 176.4, 8.71 163.89, 5.24 150.99 C1.77 138.08, -1.21 123.37, -0.52 109.8 C0.16 96.24, 3.61 81.79, 9.34 69.59 C15.08 57.38, 24.59 46.53, 33.89 36.59 C43.18 26.65, 53.27 16.08, 65.13 9.95 C76.99 3.83, 98.35 0.79, 105.05 -0.16 C111.74 -1.11, 105.26 2.3, 105.29 4.25" stroke="#1e1e1e" stroke-width="1" fill="none"></path></g><g stroke-linecap="round" transform="translate(207.24802544695342 93.73680263902179) rotate(0 51.24614360051846 97.81114908368187)"><path d="M23.73 16.65 C23.73 16.65, 23.73 16.65, 23.73 16.65 M23.73 16.65 C23.73 16.65, 23.73 16.65, 23.73 16.65 M15.22 33.76 C22.23 25.04, 28.66 16.86, 40.05 6.56 M15.16 33.12 C20.7 25.35, 27.8 18.44, 38.69 5.58 M8.42 45.86 C22.77 28.9, 36.74 14.18, 46.14 2.03 M7.27 47.61 C17.88 34.34, 29.03 22.68, 45.23 4.21 M8.49 52.56 C22.03 36.45, 39.01 15.4, 51.74 5.93 M6.88 53.27 C20.25 37.89, 33.75 22.53, 50.77 4.79 M5.73 62.68 C17.67 49.63, 26.16 36.23, 54.43 2.2 M5.46 60.89 C22.01 41.33, 40.46 20.27, 55.48 4.69 M5.44 68.75 C18.32 56.13, 28.95 39.5, 59.77 6.11 M5.69 69.3 C23.01 48.78, 40.71 25.94, 61 3.13 M4.07 75.42 C27.95 48.24, 50.19 22.88, 66.47 5.32 M3.15 77.64 C18.3 59.58, 32.92 42.27, 66.22 5.1 M2.39 84.44 C17.27 66.02, 36.68 44.17, 67.76 6.23 M2.08 83.36 C21.15 61.99, 40.39 39.36, 68.24 7.6 M3.48 92.31 C16.66 70.96, 34.47 55.89, 73.22 10.25 M0.96 89.63 C21.04 67.22, 40.1 44.47, 70.82 10.83 M1.34 96.57 C22.12 70.01, 47.08 44.81, 75.41 14.62 M1.76 96.62 C25.33 70.07, 48.44 43.08, 74.56 12.94 M0.78 102.56 C27.04 73.88, 52.76 43.01, 75.9 17.72 M1.37 102.17 C29.66 71.09, 58.84 38.92, 77.56 16.26 M2.09 110.29 C32.08 76.62, 59.33 42.4, 81.13 17.94 M0.89 109.57 C18.7 88.96, 34.54 70.52, 80.83 19.97 M2.9 114.99 C25.35 86.75, 48.67 57.42, 84.3 22.4 M1.09 115.93 C32.05 79.23, 61.23 44.72, 82.85 21.86 M0.18 120.39 C23.34 99.55, 42.31 76.74, 86.79 25.33 M0.98 120.49 C26.85 91.46, 50.89 63.85, 84.5 24.54 M3.47 124.58 C30.61 93.46, 62.74 59.18, 86.59 29.85 M2.65 126.29 C26.02 99.31, 48.15 73.01, 88.14 28.15 M3.54 130.29 C21.98 111.16, 36.56 90.49, 89.05 32.81 M4.51 129.43 C36.79 94.15, 67.67 58.86, 89.92 33.07 M4.94 135.48 C30.97 109.37, 52.66 80.73, 89.37 36.81 M5.48 135.49 C27.01 113.29, 47.08 89.24, 90.89 36.93 M5.94 139.86 C24.23 119.32, 42.04 96.62, 92.63 41.54 M7.45 139.03 C40.15 100.64, 72.01 64.13, 92.61 41.76 M7.83 143.25 C41.25 106.61, 71.99 72.05, 94.33 46.13 M8.24 143.8 C40.42 107.15, 70.02 71.4, 94.27 45.29 M8.87 146.36 C35.89 116.91, 62.12 89.99, 94.36 50.12 M10.07 148.46 C38.24 114.91, 66.44 82.22, 96.28 49.86 M12.13 153.6 C37.19 123.53, 58.16 98.51, 96.27 53.36 M11.1 151.29 C41.4 118.9, 69.75 83.69, 98.14 53.15 M12.9 157.44 C41.46 120.13, 75.6 86.53, 98.52 59.53 M13.34 157.43 C43.97 121.88, 77.06 84.86, 97.24 59.67 M13.86 161.4 C41.57 128.86, 69.2 97.81, 99.07 66.45 M15.43 161.82 C44.59 123.4, 78.37 86.89, 98.11 63.95 M17.04 163.66 C45.89 130.89, 77.73 94.14, 97.41 71.67 M17.25 163.69 C44.05 134.87, 68.8 103.38, 99.93 70.03 M17.81 170.14 C36.54 148.33, 50.69 132.39, 99.7 73.49 M19.45 169.53 C39.39 144.85, 61.53 119.35, 100.42 75.43 M20.73 173 C48.68 139.32, 77.69 109.29, 99.49 82.08 M21.89 172.55 C49.59 140.65, 76.55 108.45, 100.03 80.09 M24.89 177.02 C42.56 151.08, 63.24 127.04, 102.24 85.23 M22.62 174.89 C48.04 147.61, 70.97 119.96, 101.09 87.13 M26.49 179.6 C45.04 158.37, 62.54 138.08, 101.28 91.72 M24.99 178.62 C46.06 155.81, 66.27 132.27, 101.39 92.03 M27.45 181.37 C46.58 161.6, 64.42 138.99, 105.79 94.32 M27.93 182.16 C46.09 163.17, 62.05 143.58, 104.73 94.62 M29.97 186.24 C54.94 153.54, 85.33 125.07, 101.43 100.95 M29.04 187.3 C50.01 164.67, 69.14 142.23, 103.12 102.08 M31.86 189.42 C57.12 159.68, 83.63 133.52, 104.08 109.87 M33.54 189.12 C48.29 170.03, 65.01 152.92, 103.19 109.08 M36.5 190.84 C49.61 172.77, 67.61 154.25, 104.67 113.81 M36.81 190.26 C58.5 164.56, 81.93 137.87, 102.52 113.81 M40.67 193.32 C60.44 167.66, 85.44 141.16, 102.35 121.06 M39.84 193.11 C61.1 167.86, 80.46 145.2, 103.48 121.91 M45.25 195.76 C61.72 175.3, 81.67 152.11, 101.14 129.97 M44.52 193.77 C64.23 171.93, 82.66 150.31, 101.4 129.01 M47.8 195.12 C63.1 179.58, 74.94 165.08, 99.77 133.79 M47.77 196.04 C61.64 179.9, 77.69 164.01, 101.09 134.36 M49.15 199.02 C63.29 185.84, 71.81 175.04, 97.77 146.27 M50.78 198.88 C63.11 186.73, 72.93 172.99, 98.47 144.35 M57.92 195.26 C69.07 182.19, 80.69 166.29, 93.25 153.88 M59.08 195.82 C71.23 179.94, 84.37 164.24, 94.92 155.71 M66.06 193.72 C70.38 187.79, 75.37 183.68, 86.96 167.72 M64.7 193.85 C71.1 186.19, 77.69 179.01, 89 167.25" stroke="#000000" stroke-width="0.5" fill="none"></path><path d="M43.3 1.7 C49.62 -1.78, 57.52 -0.87, 64.07 2.55 C70.63 5.97, 77.17 13.63, 82.61 22.21 C88.04 30.79, 93.46 42.25, 96.67 54.04 C99.87 65.82, 101.39 79.7, 101.82 92.92 C102.25 106.14, 101.5 121.05, 99.23 133.35 C96.97 145.65, 93.17 157.35, 88.25 166.7 C83.32 176.06, 76.41 184.52, 69.69 189.49 C62.96 194.45, 54.91 197.32, 47.91 196.5 C40.91 195.68, 33.68 190.85, 27.7 184.57 C21.73 178.3, 16.51 169.02, 12.05 158.86 C7.58 148.7, 2.72 136.17, 0.9 123.62 C-0.92 111.07, 0.01 96.52, 1.12 83.56 C2.23 70.59, 3.84 56.94, 7.57 45.83 C11.3 34.72, 17.11 24.61, 23.49 16.92 C29.87 9.24, 41.46 2.23, 45.85 -0.27 C50.23 -2.77, 49.64 0.1, 49.81 1.93 M60.6 1.47 C67.57 1.62, 74.02 7.3, 79.8 14.28 C85.58 21.25, 91.79 32.04, 95.28 43.33 C98.76 54.61, 100 68.63, 100.69 81.97 C101.38 95.32, 101.21 110.75, 99.41 123.4 C97.61 136.05, 94.24 147.85, 89.89 157.88 C85.54 167.9, 79.39 177.42, 73.3 183.56 C67.21 189.71, 59.82 193.81, 53.33 194.73 C46.85 195.65, 40.76 193.67, 34.39 189.1 C28.01 184.54, 20.1 176.62, 15.08 167.33 C10.06 158.03, 6.85 145.76, 4.27 133.35 C1.7 120.95, -0.31 106.29, -0.35 92.92 C-0.39 79.55, 0.73 64.73, 4.02 53.13 C7.31 41.53, 13.94 31.76, 19.39 23.35 C24.83 14.94, 29.86 6.21, 36.7 2.66 C43.54 -0.9, 56.93 2.16, 60.43 2.01 C63.93 1.86, 57.84 0.45, 57.7 1.75" stroke="transparent" stroke-width="1" fill="none"></path></g><g transform="translate(100.86949311935314 78.70122158347112) rotate(0 6.558333396911621 12.5)"><text x="0" y="0" font-family="Virgil, Segoe UI Emoji" font-size="20px" fill="#1e1e1e" text-anchor="start" style="white-space: pre;" direction="ltr" dominant-baseline="text-before-edge">А</text></g><g transform="translate(387.06423912135574 70.27021506739061) rotate(0 7.266666889190674 12.5)"><text x="0" y="0" font-family="Virgil, Segoe UI Emoji" font-size="20px" fill="#1e1e1e" text-anchor="start" style="white-space: pre;" direction="ltr" dominant-baseline="text-before-edge">B</text></g><g stroke-linecap="round" transform="translate(10 10) rotate(0 242.63399705963457 175.7004806293906)"><path d="M32 0 M32 0 C174.94 0.42, 318.81 -0.02, 453.27 0 M32 0 C127.95 -0.68, 224.44 -0.68, 453.27 0 M453.27 0 C473.82 -1.76, 485.7 11.63, 485.27 32 M453.27 0 C476.37 -1.99, 485.09 9.6, 485.27 32 M485.27 32 C483.57 136.34, 484.92 237.03, 485.27 319.4 M485.27 32 C487.34 143.9, 486.7 254.46, 485.27 319.4 M485.27 319.4 C486.06 338.86, 475.29 352, 453.27 351.4 M485.27 319.4 C485.62 339.62, 474.05 350.86, 453.27 351.4 M453.27 351.4 C333.08 351.22, 212.51 352.37, 32 351.4 M453.27 351.4 C315.63 353.66, 177.79 353.24, 32 351.4 M32 351.4 C10.01 350.83, 1.33 339.09, 0 319.4 M32 351.4 C11.77 350.37, 1.18 342.63, 0 319.4 M0 319.4 C0.34 223.17, 1.88 126.43, 0 32 M0 319.4 C0.42 206.25, -0.18 93.88, 0 32 M0 32 C0.16 12.36, 8.76 -1.14, 32 0 M0 32 C-0.98 12.68, 9.91 -1.26, 32 0" stroke="#1e1e1e" stroke-width="1" fill="none"></path></g><g transform="translate(460.6841310218324 43.53235818482847) rotate(0 10.399999618530273 17.5)"><text x="0" y="0" font-family="Virgil, Segoe UI Emoji" font-size="28px" fill="#1e1e1e" text-anchor="start" style="white-space: pre;" direction="ltr" dominant-baseline="text-before-edge">𝛺</text></g></svg>